HIERARCHY
ROOT Hips
{
	OFFSET -3.958830 18.904000 13.208200
	CHANNELS 6 Xposition Yposition Zposition Zrotation Yrotation Xrotation 
	JOINT LHipJoint
	{
		OFFSET 0.000000 0.000000 0.000000
		CHANNELS 3 Zrotation Yrotation Xrotation
		JOINT LeftUpLeg
		{
			OFFSET 1.800000 -1.400000 0.085000
			CHANNELS 3 Zrotation Yrotation Xrotation
			JOINT LeftLeg
			{
				OFFSET 2.215000 -6.000000 0.000000
				CHANNELS 3 Zrotation Yrotation Xrotation
				JOINT LeftFoot
				{
					OFFSET 2.500000 -6.900000 0.000000
					CHANNELS 3 Zrotation Yrotation Xrotation
					JOINT LeftToeBase
					{
						OFFSET 0.200000 -0.500000 1.950000
						CHANNELS 3 Zrotation Yrotation Xrotation
						End Site
						{
							OFFSET 0.000000 0.000000 0.000000
						}
					}
				}
			}
		}
	}
	JOINT RHipJoint
	{
		OFFSET 0.000000 0.000000 0.000000
		CHANNELS 3 Zrotation Yrotation Xrotation
		JOINT RightUpLeg
		{
			OFFSET -1.800000 -1.400000 0.085000
			CHANNELS 3 Zrotation Yrotation Xrotation
			JOINT RightLeg
			{
				OFFSET -2.215000 -6.000000 0.000000
				CHANNELS 3 Zrotation Yrotation Xrotation
				JOINT RightFoot
				{
					OFFSET -2.500000 -6.900000 0.000000
					CHANNELS 3 Zrotation Yrotation Xrotation
					JOINT RightToeBase
					{
						OFFSET -0.200000 -0.500000 1.950000
						CHANNELS 3 Zrotation Yrotation Xrotation
						End Site
						{
							OFFSET 0.000000 0.000000 0.000000
						}
					}
				}
			}
		}
	}
	JOINT LowerBack
	{
		OFFSET 0.000000 0.000000 0.000000
		CHANNELS 3 Zrotation Yrotation Xrotation
		JOINT Spine
		{
			OFFSET -0.087000 1.940000 -0.288900
			CHANNELS 3 Zrotation Yrotation Xrotation
			JOINT Spine1
			{
				OFFSET 0.000000 1.950000 0.060000
				CHANNELS 3 Zrotation Yrotation Xrotation
				JOINT Neck
				{
					OFFSET 0.000000 0.000000 0.000000
					CHANNELS 3 Zrotation Yrotation Xrotation
					JOINT Neck1
					{
						OFFSET 0.000000 1.600000 0.340000
						CHANNELS 3 Zrotation Yrotation Xrotation
						JOINT Head
						{
							OFFSET 0.000000 1.667000 -0.240000
							CHANNELS 3 Zrotation Yrotation Xrotation
							End Site
							{
								OFFSET 0.000000 0.000000 0.000000
							}
						}
					}
				}
				JOINT LeftShoulder
				{
					OFFSET 0.000000 0.000000 0.000000
					CHANNELS 3 Zrotation Yrotation Xrotation
					JOINT LeftArm
					{
						OFFSET 2.700000 1.550000 -0.730000
						CHANNELS 3 Zrotation Yrotation Xrotation
						JOINT LeftForeArm
						{
							OFFSET 5.450000 0.000000 0.000000
							CHANNELS 3 Zrotation Yrotation Xrotation
							JOINT LeftHand
							{
								OFFSET 3.450000 0.000000 0.000000
								CHANNELS 3 Zrotation Yrotation Xrotation
								JOINT LeftHandIndex1
								{
									OFFSET 0.750000 0.000000 0.000000
									CHANNELS 3 Zrotation Yrotation Xrotation
									End Site
									{
										OFFSET 0.000000 0.000000 0.000000
									}
								}
							}
						}
					}
				}
				JOINT RightShoulder
				{
					OFFSET 0.000000 0.000000 0.000000
					CHANNELS 3 Zrotation Yrotation Xrotation
					JOINT RightArm
					{
						OFFSET -2.700000 1.550000 -0.730000
						CHANNELS 3 Zrotation Yrotation Xrotation
						JOINT RightForeArm
						{
							OFFSET -5.450000 0.000000 0.000000
							CHANNELS 3 Zrotation Yrotation Xrotation
							JOINT RightHand
							{
								OFFSET -3.450000 0.000000 0.000000
								CHANNELS 3 Zrotation Yrotation Xrotation
								JOINT RightHandIndex1
								{
									OFFSET -0.750000 0.000000 0.000000
									CHANNELS 3 Zrotation Yrotation Xrotation
									End Site
									{
										OFFSET 0.000000 0.000000 0.000000
									}
								}
							}
						}
					}
				}
			}
		}
	}
}
MOTION
Frames: 10
Frame Time: 0.016667
5.505120 16.199250 -19.101130 172.091094 67.989681 174.831900 -15.188309 14.006498 3.354709 11.980396 -5.450975 15.181452 -9.437856 10.628949 21.961739 0.461917 7.834785 2.207484 0.288040 -0.235450 0.403820 18.019037 -9.449261 4.911901 3.145653 7.767421 -45.138407 12.336470 -11.492816 39.062182 -0.606161 -5.768313 2.315009 -0.137210 0.175490 0.268890 -2.705548 -3.921808 -9.170295 7.500445 -15.797107 13.311974 -2.436409 -8.846210 -28.591615 4.522987 2.390161 -12.024100 0.816911 -13.988753 38.863271 -10.724130 -11.755000 -1.934200 4.660798 6.182462 -1.844905 -14.822588 -6.960587 0.382592 7.104318 -9.071832 -0.259060 -3.972179 2.573457 0.571900 0.063080 -0.030620 0.163700 -16.192993 -3.101953 9.822229 28.991913 -4.900882 -3.977579 -12.498242 11.833264 0.146619 2.505158 -1.421004 -0.215790 0.074330 -0.069380 -0.198650 
5.812020 16.370980 -19.086060 167.197231 69.101442 170.352503 -15.160914 14.006102 3.443603 9.127223 -4.132244 12.712852 -9.138378 9.875666 21.209121 0.455122 7.260908 2.375334 0.312220 -0.212150 0.374120 17.972393 -9.966840 4.692965 3.274467 6.795917 -41.518052 11.354743 -10.458105 36.953507 -0.516149 -5.334180 2.435123 -0.158700 0.157810 0.323280 -2.778620 -3.213693 -9.056326 4.739209 -15.028002 11.791307 -1.508299 -8.791902 -28.745064 3.905593 2.944839 -12.807485 1.941819 -13.661896 40.634385 -9.189780 -12.461360 0.762060 7.007852 5.751416 -1.417831 -15.394297 -7.430769 0.413495 6.883693 -9.857831 -0.144787 -3.926416 2.760858 0.504350 0.057400 -0.031810 0.185840 -17.472558 -3.051890 9.888872 27.794633 -3.707855 -3.487394 -10.937970 10.190107 0.144816 2.579036 -1.481572 -0.126770 -0.036370 -0.092600 -0.150660 
6.075690 16.550130 -19.074100 167.529853 71.127384 170.200598 -15.140386 14.127110 3.561283 8.024416 -3.436006 10.489411 -10.232637 9.803074 20.309970 0.455974 6.945336 2.465832 0.355110 -0.127170 0.373190 17.954362 -10.166790 4.456195 5.555919 6.436616 -36.529241 9.476513 -8.860746 34.176878 -0.412364 -4.642118 2.709458 -0.129910 0.121520 0.292010 -2.729609 -3.276925 -8.979864 4.915110 -14.209478 10.926984 -1.624947 -8.191653 -26.989633 4.086621 2.786936 -13.962723 1.475041 -12.628914 41.460823 -8.301440 -11.945710 1.068560 7.808235 3.221995 -0.112110 -14.994313 -7.508697 0.339255 7.596191 -7.919755 -0.233720 -3.894093 2.782315 0.479120 0.032830 -0.015790 0.215710 -18.188786 -0.713002 10.458495 27.294100 -4.000473 -3.527871 -9.957432 7.528952 0.124841 2.659602 -1.448520 -0.095970 -0.060830 -0.153550 -0.126130 
6.362880 16.788850 -19.055010 164.444947 70.668645 167.667599 -15.074495 14.246796 3.642293 5.291063 -2.514302 7.352184 -8.639100 8.512723 18.779890 0.274731 6.241753 2.714267 0.330060 -0.171880 0.355630 17.940315 -10.627125 4.162343 5.479686 4.756822 -31.731755 8.723686 -7.409354 28.175783 -0.224652 -3.759192 3.044047 -0.140700 0.165580 0.299580 -2.819670 -2.980873 -8.794301 4.274579 -14.584097 8.766690 -2.347352 -9.144549 -27.420353 4.079480 2.777593 -13.532025 1.556254 -12.561185 41.022989 -8.904500 -11.711680 2.477450 7.509332 4.270838 -0.538257 -13.402017 -7.056482 0.523564 7.197093 -11.326180 0.024961 -3.865612 2.844498 0.462190 0.070760 -0.054340 0.220560 -18.000266 -1.939948 10.034210 25.683102 -3.465367 -3.287190 -9.161938 9.992433 0.065931 2.581179 -1.515885 -0.118580 -0.057740 -0.136580 -0.127550 
6.626070 16.997550 -18.987440 161.991437 72.870278 165.122311 -15.127116 14.138121 3.730610 4.070400 -1.730418 5.636173 -9.993206 8.243037 16.020929 0.231868 5.887977 2.837130 0.292200 -0.178480 0.326090 17.894163 -10.807940 4.034659 7.518255 4.364078 -26.768659 5.224841 -5.156586 23.247119 -0.105920 -2.965993 3.382568 -0.155170 0.179440 0.306140 -2.865389 -2.558922 -8.751796 3.379860 -13.445442 6.867255 -2.659207 -8.694537 -25.418392 4.248424 3.659393 -14.268848 3.326888 -13.176554 42.018925 -10.432180 -11.026550 2.983930 6.626560 2.411278 0.177061 -11.255809 -6.062699 0.411761 7.378838 -12.283164 0.119579 -3.891204 2.780277 0.449060 0.100210 -0.033160 0.221200 -17.559002 -0.849371 10.832232 26.904726 -4.940532 -3.623363 -12.294516 12.984058 0.047244 2.532940 -1.577493 -0.112370 -0.029510 -0.121760 -0.116550 
6.865910 17.239820 -18.942890 152.760570 75.378097 156.284145 -15.252767 13.970460 3.860809 1.102356 -0.740003 3.599889 -11.269724 7.717925 12.996711 0.071355 5.502641 2.929713 0.315970 -0.174290 0.366080 17.801472 -10.925575 3.892271 7.696369 3.645177 -22.775590 2.979302 -3.678364 17.883494 -0.056833 -2.462873 3.542830 -0.126290 0.157020 0.315820 -2.682917 -2.172098 -8.709940 0.103793 -11.730332 5.258684 -1.182662 -8.038764 -23.897669 5.001854 3.462676 -14.354077 2.711643 -12.588587 43.674149 -10.654000 -10.803880 0.933160 6.617422 1.691457 0.101334 -12.169832 -8.985978 0.971148 8.942480 -6.921596 -0.378979 -4.020918 2.672396 0.505920 0.080290 -0.019400 0.181210 -18.090710 -0.104001 10.821678 25.816140 -3.653147 -3.107673 -9.720854 10.487485 0.103361 2.509832 -1.450206 -0.134040 -0.002870 -0.076980 -0.160200 
7.034060 17.456850 -18.913200 147.610503 77.536890 151.526845 -15.324049 13.922761 3.885741 -1.406070 -0.137402 0.874902 -10.092555 6.519052 9.437229 -0.129438 5.003226 3.176342 0.202930 -0.344390 0.296520 17.780724 -10.811085 3.878404 7.865305 3.167204 -19.617254 1.898561 -2.622891 10.669290 0.064822 -2.188545 3.703852 -0.156160 0.330370 0.297780 -2.624376 -2.304908 -8.700903 0.246475 -11.072535 5.096330 -0.360073 -7.471559 -23.048874 5.056339 2.460300 -14.328890 1.150909 -10.938802 41.458939 -10.504930 -9.749530 3.574770 7.434111 2.025508 -0.104564 -14.566025 -9.552827 1.213857 10.624891 -4.763931 -0.471410 -4.208562 2.597568 0.474330 0.191600 -0.154540 0.179570 -18.783693 0.651375 10.863283 24.946837 -2.725113 -2.915764 -8.669580 10.084420 0.030205 2.448182 -1.423779 -0.254420 0.076370 0.008780 -0.173650 
7.209810 17.660860 -18.886020 130.234263 81.025764 134.655668 -15.470487 13.766625 3.966366 -2.828101 0.035597 -1.137047 -11.279431 5.904978 6.020774 -0.126458 4.638702 3.218388 0.267630 -0.275850 0.344740 17.685044 -10.688824 3.843935 7.031406 2.668551 -17.251391 1.861819 -2.193604 4.951468 -0.001207 -2.177835 3.641423 -0.153040 0.205500 0.366330 -2.564023 -1.971939 -8.744239 -0.259825 -8.506034 4.322542 -0.219665 -5.456717 -21.951214 5.841039 2.838983 -14.700913 1.599117 -12.157857 42.282166 -11.474770 -10.662750 3.078480 6.383684 1.237706 -0.309753 -15.089034 -11.772778 1.830953 13.812997 -3.284256 -0.391251 -4.198985 2.779200 0.454410 0.132570 -0.092800 0.146250 -18.788992 1.867564 11.756862 25.773006 -5.343764 -3.506107 -9.412599 11.946869 0.075122 2.461376 -1.541209 -0.142630 -0.056930 -0.010110 -0.171060 
7.390660 17.835580 -18.809420 111.702072 80.998714 115.489430 -15.520933 13.715125 3.991142 -3.701136 -0.240397 -3.474071 -12.141976 5.784431 5.848815 -0.202248 4.460164 3.254305 0.274950 -0.278160 0.383730 17.633904 -10.727336 3.689684 3.718518 1.935229 -15.314565 3.771546 -2.545663 2.837601 -0.080605 -2.352570 3.597208 -0.163210 0.151570 0.327810 -2.571802 -1.239468 -8.565739 -4.224128 -7.599673 4.674404 2.440473 -5.441402 -19.720938 4.969513 3.142349 -15.939310 2.341269 -11.710434 43.369175 -11.107240 -9.681370 1.543470 6.608485 -1.550359 1.708743 -15.190696 -7.739093 0.790681 13.938917 -4.047823 -0.384455 -4.123717 2.712804 0.542380 0.078910 -0.052480 0.125240 -17.504166 3.718119 12.346800 24.615624 -5.450972 -3.268510 -10.100712 9.760889 0.124794 2.507748 -1.413423 -0.171640 -0.033490 -0.016060 -0.213620 
7.590840 17.979740 -18.755630 90.797241 82.263642 94.648512 -15.401418 13.639986 4.044454 -3.430346 -0.562234 -4.966687 -12.019034 4.947618 2.083972 -0.413272 4.570132 3.239180 -0.026210 -0.697980 0.177840 17.784032 -10.623344 3.644139 3.473485 1.848114 -14.093837 3.676230 -2.692351 2.044954 0.041393 -2.561528 3.521807 -0.300730 0.419970 0.417130 -2.590908 -0.993700 -8.570655 -3.210859 -6.635180 5.162744 1.507969 -4.529341 -19.566786 4.293910 3.028780 -15.991076 2.850908 -11.136684 40.591602 -10.266650 -10.036100 4.277680 8.334311 -0.796899 1.148387 -16.126681 -7.615447 0.913783 14.427126 -6.362862 -0.706443 -4.440527 2.631261 0.523700 0.268420 -0.245370 0.004500 -18.520250 3.748964 12.614886 26.629240 -4.811115 -3.562086 -10.822447 9.852983 0.202836 2.384434 -1.337109 -0.319140 0.026630 0.304450 -0.247270 
